<svg width="21" height="21" viewBox="0 0 21 21" fill="none" xmlns="http://www.w3.org/2000/svg">
<path d="M5.09506 3.1778L10.4991 8.5818L15.8751 3.2058C15.9938 3.07941 16.1369 2.9783 16.2956 2.90853C16.4544 2.83877 16.6256 2.80178 16.7991 2.7998C17.1704 2.7998 17.5265 2.9473 17.789 3.20986C18.0516 3.47241 18.1991 3.8285 18.1991 4.1998C18.2023 4.37145 18.1705 4.54195 18.1055 4.70084C18.0405 4.85973 17.9437 5.00366 17.8211 5.1238L12.3751 10.4998L17.8211 15.9458C18.0518 16.1715 18.1871 16.4772 18.1991 16.7998C18.1991 17.1711 18.0516 17.5272 17.789 17.7898C17.5265 18.0523 17.1704 18.1998 16.7991 18.1998C16.6206 18.2072 16.4426 18.1774 16.2763 18.1124C16.11 18.0473 15.9591 17.9483 15.8331 17.8218L10.4991 12.4178L5.10906 17.8078C4.99076 17.93 4.84945 18.0275 4.69326 18.0948C4.53707 18.1621 4.36911 18.1978 4.19906 18.1998C3.82775 18.1998 3.47166 18.0523 3.20911 17.7898C2.94656 17.5272 2.79906 17.1711 2.79906 16.7998C2.79579 16.6282 2.82764 16.4577 2.89264 16.2988C2.95764 16.1399 3.05443 15.9959 3.17706 15.8758L8.62306 10.4998L3.17706 5.0538C2.94631 4.82807 2.81101 4.52238 2.79906 4.1998C2.79906 3.8285 2.94656 3.47241 3.20911 3.20986C3.47166 2.9473 3.82775 2.7998 4.19906 2.7998C4.53506 2.804 4.85706 2.9398 5.09506 3.1778Z" fill="#A9A9A9"/>
</svg>
